<svg width="40" height="40" viewBox="0 0 40 40" fill="none" xmlns="http://www.w3.org/2000/svg">
<path fill-rule="evenodd" clip-rule="evenodd" d="M9.03033 13.0303C8.22059 13.8401 7.75 15.1156 7.75 17V22C7.75 24.4353 8.24367 25.6541 8.99388 26.3106C9.76886 26.9887 11.0133 27.25 13 27.25H13.5C13.7828 27.25 14.058 27.3383 14.2744 27.4455C14.488 27.5515 14.7297 27.7182 14.9026 27.9535L16.4 29.95C16.6092 30.2289 16.8337 30.31 17 30.31C17.1663 30.31 17.3908 30.2289 17.6 29.95L19.1 27.95L19.1029 27.9462C19.4325 27.5124 19.9521 27.25 20.5 27.25H21C22.8844 27.25 24.1599 26.7794 24.9697 25.9697C25.7794 25.1599 26.25 23.8844 26.25 22V19C26.25 18.5858 26.5858 18.25 27 18.25C27.4142 18.25 27.75 18.5858 27.75 19V22C27.75 24.1156 27.2206 25.8401 26.0303 27.0303C24.8401 28.2206 23.1156 28.75 21 28.75H20.5C20.4284 28.75 20.3486 28.7871 20.2982 28.8524C20.2978 28.8529 20.2975 28.8534 20.2971 28.8538L18.8 30.85C18.3492 31.4511 17.7037 31.81 17 31.81C16.2963 31.81 15.6508 31.4511 15.2 30.85L13.6988 28.8484C13.6965 28.8462 13.692 28.8422 13.6847 28.8365C13.6666 28.8224 13.6404 28.8054 13.6081 28.7895C13.576 28.7735 13.5453 28.7622 13.5207 28.7556C13.5062 28.7517 13.4977 28.7504 13.4949 28.75H13C10.9867 28.75 9.23114 28.5113 8.00612 27.4394C6.75633 26.3459 6.25 24.5647 6.25 22V17C6.25 14.8844 6.77941 13.1599 7.96967 11.9697C9.15993 10.7794 10.8844 10.25 13 10.25H19C19.4142 10.25 19.75 10.5858 19.75 11C19.75 11.4142 19.4142 11.75 19 11.75H13C11.1156 11.75 9.84007 12.2206 9.03033 13.0303ZM12.2445 20C12.2445 19.5858 12.5803 19.25 12.9945 19.25H13.0035C13.4177 19.25 13.7535 19.5858 13.7535 20C13.7535 20.4142 13.4177 20.75 13.0035 20.75H12.9945C12.5803 20.75 12.2445 20.4142 12.2445 20ZM16.2455 20C16.2455 19.5858 16.5813 19.25 16.9955 19.25H17.0045C17.4187 19.25 17.7545 19.5858 17.7545 20C17.7545 20.4142 17.4187 20.75 17.0045 20.75H16.9955C16.5813 20.75 16.2455 20.4142 16.2455 20ZM20.2465 20C20.2465 19.5858 20.5822 19.25 20.9965 19.25H21.0054C21.4197 19.25 21.7554 19.5858 21.7554 20C21.7554 20.4142 21.4197 20.75 21.0054 20.75H20.9965C20.5822 20.75 20.2465 20.4142 20.2465 20Z" fill="#131416"/>
<rect x="18" y="7" width="17" height="12" rx="6" fill="#004C91"/>
<path d="M22.0245 16.6499V16.0135L23.9933 13.9738C24.2035 13.7522 24.3768 13.558 24.5131 13.3914C24.6514 13.2228 24.7546 13.0628 24.8228 12.9113C24.891 12.7598 24.9251 12.5988 24.9251 12.4283C24.9251 12.2351 24.8796 12.0685 24.7887 11.9283C24.6978 11.7863 24.5737 11.6774 24.4165 11.6016C24.2594 11.524 24.0823 11.4851 23.8853 11.4851C23.677 11.4851 23.4951 11.5277 23.3398 11.613C23.1845 11.6982 23.0652 11.8185 22.9819 11.9738C22.8986 12.1291 22.8569 12.3109 22.8569 12.5192H22.0188C22.0188 12.1651 22.1003 11.8554 22.2631 11.5902C22.426 11.3251 22.6495 11.1196 22.9336 10.9738C23.2177 10.826 23.5406 10.7522 23.9023 10.7522C24.2679 10.7522 24.5898 10.8251 24.8683 10.9709C25.1486 11.1149 25.3673 11.3118 25.5245 11.5618C25.6817 11.8099 25.7603 12.0902 25.7603 12.4027C25.7603 12.6187 25.7196 12.8298 25.6381 13.0363C25.5586 13.2427 25.4194 13.4728 25.2205 13.7266C25.0217 13.9785 24.7451 14.2844 24.391 14.6442L23.2347 15.8544V15.8971H25.854V16.6499H22.0245ZM28.9563 16.7465C28.5075 16.7446 28.1239 16.6262 27.8058 16.3914C27.4876 16.1565 27.2442 15.8147 27.0756 15.3658C26.9071 14.9169 26.8228 14.3762 26.8228 13.7437C26.8228 13.113 26.9071 12.5741 27.0756 12.1272C27.2461 11.6802 27.4904 11.3393 27.8086 11.1044C28.1287 10.8696 28.5112 10.7522 28.9563 10.7522C29.4014 10.7522 29.783 10.8705 30.1012 11.1073C30.4194 11.3421 30.6628 11.683 30.8313 12.13C31.0018 12.5751 31.087 13.113 31.087 13.7437C31.087 14.3781 31.0027 14.9198 30.8342 15.3687C30.6656 15.8156 30.4222 16.1575 30.104 16.3942C29.7859 16.6291 29.4033 16.7465 28.9563 16.7465ZM28.9563 15.988C29.3503 15.988 29.658 15.7957 29.8796 15.4113C30.1031 15.0268 30.2148 14.4709 30.2148 13.7437C30.2148 13.2607 30.1637 12.8526 30.0614 12.5192C29.9611 12.184 29.8162 11.9302 29.6268 11.7579C29.4393 11.5836 29.2158 11.4965 28.9563 11.4965C28.5643 11.4965 28.2565 11.6897 28.033 12.076C27.8095 12.4624 27.6969 13.0183 27.695 13.7437C27.695 14.2285 27.7451 14.6385 27.8455 14.9738C27.9478 15.3071 28.0927 15.5599 28.2802 15.7323C28.4677 15.9027 28.6931 15.988 28.9563 15.988Z" fill="white"/>
</svg>
