<svg width="39" height="68" viewBox="0 0 39 68" fill="none" xmlns="http://www.w3.org/2000/svg">
<path d="M37.535 65.8198C38.4724 64.8821 38.9989 63.6106 38.9989 62.2848C38.9989 60.9589 38.4724 59.6874 37.535 58.7498L12.785 33.9998L37.535 9.24975C38.4458 8.30673 38.9498 7.04372 38.9384 5.73274C38.927 4.42175 38.4011 3.16769 37.4741 2.24065C36.547 1.31361 35.293 0.787768 33.982 0.776376C32.671 0.764984 31.408 1.26896 30.465 2.17975L2.17999 30.4648C1.24264 31.4024 0.716063 32.6739 0.716063 33.9998C0.716063 35.3256 1.24264 36.5971 2.18 37.5348L30.465 65.8198C31.4026 66.7571 32.6742 67.2837 34 67.2837C35.3258 67.2837 36.5974 66.7571 37.535 65.8198Z" fill="black"/>
</svg>
