<svg width="39" height="77" viewBox="0 0 39 77" fill="none" xmlns="http://www.w3.org/2000/svg">
<path d="M37.535 75.1273C38.4724 74.0529 38.9989 72.5959 38.9989 71.0767C38.9989 69.5576 38.4724 68.1006 37.535 67.0262L12.785 38.6668L37.535 10.3075C38.4458 9.22693 38.9498 7.77973 38.9384 6.27756C38.927 4.77539 38.4011 3.33844 37.4741 2.27621C36.547 1.21398 35.293 0.611452 33.982 0.598399C32.671 0.585346 31.408 1.16281 30.465 2.20643L2.17999 34.6163C1.24264 35.6907 0.716063 37.1477 0.716063 38.6668C0.716063 40.186 1.24264 41.643 2.17999 42.7174L30.465 75.1273C31.4026 76.2013 32.6742 76.8047 34 76.8047C35.3258 76.8047 36.5974 76.2013 37.535 75.1273Z" fill="white"/>
</svg>
