<svg width="39" height="68" viewBox="0 0 39 68" fill="none" xmlns="http://www.w3.org/2000/svg">
<path d="M1.465 2.18024C0.527645 3.11788 0.00106764 4.38942 0.00106758 5.71524C0.00106753 7.04106 0.527645 8.3126 1.465 9.25024L26.215 34.0002L1.465 58.7503C0.554208 59.6933 0.0502362 60.9563 0.0616282 62.2673C0.0730202 63.5782 0.598864 64.8323 1.5259 65.7593C2.45295 66.6864 3.70701 67.2122 5.01799 67.2236C6.32898 67.235 7.59199 66.731 8.535 65.8203L36.82 37.5352C37.7574 36.5976 38.2839 35.3261 38.2839 34.0002C38.2839 32.6744 37.7574 31.4029 36.82 30.4652L8.535 2.18024C7.59736 1.24288 6.32582 0.716307 5 0.716307C3.67418 0.716307 2.40264 1.24288 1.465 2.18024Z" fill="white"/>
</svg>
