<svg width="54" height="48" viewBox="0 0 54 48" fill="none" xmlns="http://www.w3.org/2000/svg">
<rect width="48" height="48" rx="24" fill="#F3F3F9"/>
<path d="M24 18.2915C21 11.2498 10.5 11.9998 10.5 20.9999C10.5 29.9999 24 37.4998 24 37.4998C24 37.4998 37.5 29.9999 37.5 20.9999C37.5 11.9998 27 11.2498 24 18.2915Z" fill="black"/>
<rect x="37" width="17" height="12" rx="6" fill="#004C91"/>
<path d="M43.1818 9.72945C42.7746 9.72945 42.4148 9.65937 42.1023 9.51922C41.7917 9.37907 41.5483 9.18589 41.3722 8.93968C41.196 8.69346 41.1089 8.41316 41.1108 8.09877C41.1089 7.85255 41.1591 7.62623 41.2614 7.41979C41.3655 7.21146 41.5066 7.03816 41.6847 6.8999C41.8627 6.75975 42.0616 6.67074 42.2812 6.63286V6.59877C41.9915 6.52869 41.7595 6.37339 41.5852 6.13286C41.411 5.89233 41.3248 5.61581 41.3267 5.30331C41.3248 5.00596 41.4034 4.74081 41.5625 4.50786C41.7235 4.27301 41.9441 4.08835 42.2244 3.95388C42.5047 3.81941 42.8239 3.75217 43.1818 3.75217C43.536 3.75217 43.8523 3.82036 44.1307 3.95672C44.411 4.09119 44.6316 4.27585 44.7926 4.5107C44.9536 4.74365 45.035 5.00786 45.0369 5.30331C45.035 5.61581 44.946 5.89233 44.7699 6.13286C44.5938 6.37339 44.3646 6.52869 44.0824 6.59877V6.63286C44.3002 6.67074 44.4962 6.75975 44.6705 6.8999C44.8466 7.03816 44.9867 7.21146 45.0909 7.41979C45.197 7.62623 45.2509 7.85255 45.2528 8.09877C45.2509 8.41316 45.1619 8.69346 44.9858 8.93968C44.8097 9.18589 44.5653 9.37907 44.2528 9.51922C43.9422 9.65937 43.5852 9.72945 43.1818 9.72945ZM43.1818 9.0107C43.4223 9.0107 43.6307 8.97093 43.8068 8.89138C43.983 8.80994 44.1193 8.69725 44.2159 8.55331C44.3125 8.40748 44.3617 8.23702 44.3636 8.04195C44.3617 7.8393 44.3087 7.66032 44.2045 7.50502C44.1023 7.34971 43.9631 7.22755 43.7869 7.13854C43.6108 7.04952 43.4091 7.00502 43.1818 7.00502C42.9527 7.00502 42.7491 7.04952 42.571 7.13854C42.393 7.22755 42.2528 7.34971 42.1506 7.50502C42.0483 7.66032 41.9981 7.8393 42 8.04195C41.9981 8.23702 42.0445 8.40748 42.1392 8.55331C42.2358 8.69725 42.3731 8.80994 42.5511 8.89138C42.7292 8.97093 42.9394 9.0107 43.1818 9.0107ZM43.1818 6.30331C43.375 6.30331 43.5464 6.26449 43.696 6.18683C43.8456 6.10918 43.9631 6.00123 44.0483 5.86297C44.1354 5.72471 44.1799 5.56278 44.1818 5.37717C44.1799 5.19536 44.1364 5.03627 44.0511 4.8999C43.9678 4.76354 43.8513 4.65843 43.7017 4.58456C43.5521 4.5088 43.3788 4.47092 43.1818 4.47092C42.9811 4.47092 42.8049 4.5088 42.6534 4.58456C42.5038 4.65843 42.3873 4.76354 42.304 4.8999C42.2206 5.03627 42.1799 5.19536 42.1818 5.37717C42.1799 5.56278 42.2216 5.72471 42.3068 5.86297C42.392 6.00123 42.5095 6.10918 42.6591 6.18683C42.8106 6.26449 42.9848 6.30331 43.1818 6.30331ZM46.4666 9.6499L49.0064 4.62717V4.58456H46.0689V3.83172H49.9155V4.61013L47.3842 9.6499H46.4666Z" fill="white"/>
</svg>
