<svg width="87" height="95" viewBox="0 0 87 95" fill="none" xmlns="http://www.w3.org/2000/svg">
<path d="M27.5639 66.4197L27.6714 34.089L19.7164 46.989L11.9226 36.9109V79.1853L0.796387 80.4484V9.14902L11.9764 6.5959V13.3415L19.6895 23.0703L27.6445 9.9284V3.18277L39.8726 0.280273V63.0065H39.9264C39.9264 78.379 35.707 89.0215 27.4295 94.8265L23.452 78.0565C25.9245 75.2346 27.2951 71.3646 27.5908 66.4465L27.5639 66.4197Z" fill="#004C91"/>
<path d="M59.492 87.7585V92.0853L47.3445 90.876V0.199707L59.8145 5.62846L59.5457 66.8228C68.6026 58.3841 73.7626 40.9691 75.2407 14.5241L86.1789 21.5385C83.1957 57.5241 74.4614 79.5616 59.492 87.7316V87.7585Z" fill="#004C91"/>
</svg>
