<svg width="48" height="48" viewBox="0 0 48 48" fill="none" xmlns="http://www.w3.org/2000/svg">
<path d="M44 0H4C2.93913 0 1.92172 0.421427 1.17157 1.17157C0.421427 1.92172 0 2.93913 0 4V44C0 45.0609 0.421427 46.0783 1.17157 46.8284C1.92172 47.5786 2.93913 48 4 48H44C45.0609 48 46.0783 47.5786 46.8284 46.8284C47.5786 46.0783 48 45.0609 48 44V4C48 2.93913 47.5786 1.92172 46.8284 1.17157C46.0783 0.421427 45.0609 0 44 0ZM38 26H26V38C26 38.5304 25.7893 39.0391 25.4142 39.4142C25.0391 39.7893 24.5304 40 24 40C23.4696 40 22.9609 39.7893 22.5858 39.4142C22.2107 39.0391 22 38.5304 22 38V26H10C9.46957 26 8.96086 25.7893 8.58579 25.4142C8.21071 25.0391 8 24.5304 8 24C8 23.4696 8.21071 22.9609 8.58579 22.5858C8.96086 22.2107 9.46957 22 10 22H22V10C22 9.46957 22.2107 8.96086 22.5858 8.58579C22.9609 8.21071 23.4696 8 24 8C24.5304 8 25.0391 8.21071 25.4142 8.58579C25.7893 8.96086 26 9.46957 26 10V22H38C38.5304 22 39.0391 22.2107 39.4142 22.5858C39.7893 22.9609 40 23.4696 40 24C40 24.5304 39.7893 25.0391 39.4142 25.4142C39.0391 25.7893 38.5304 26 38 26Z" fill="#004C91"/>
</svg>
